<?xml version="1.0" encoding="UTF-8"?> <svg xmlns="http://www.w3.org/2000/svg" xmlns:xlink="http://www.w3.org/1999/xlink" width="95px" height="37px" viewBox="0 0 95 37" version="1.1"><!-- Generator: Sketch 61.2 (89653) - https://sketch.com --><title>logotipo_ids_footer</title><desc>Created with Sketch.</desc><defs><polygon id="path-1" points="0.0249478472 0.0421929825 25.4885105 0.0421929825 25.4885105 37 0.0249478472 37"></polygon><polygon id="path-3" points="0.349740741 0.0421929825 24.7911296 0.0421929825 24.7911296 37 0.349740741 37"></polygon><polygon id="path-5" points="0.465851852 0.0433333333 5.59956229 0.0433333333 5.59956229 5.39266667 0.465851852 5.39266667"></polygon></defs><g id="Page-1" stroke="none" stroke-width="1" fill="none" fill-rule="evenodd"><g id="industrias---Telecomunicaciones" transform="translate(-124.000000, -1781.000000)"><g id="Group-5" transform="translate(0.000000, 984.000000)"><g id="Group-2" transform="translate(0.000000, 392.000000)"><g id="Group-4"><g id="section_footer" transform="translate(0.000000, 401.000000)"><g id="logotipo_ids_footer" transform="translate(124.000000, 4.000000)"><g id="logo_orig"><g id="Group-3" transform="translate(57.575758, 0.000000)"><mask id="mask-2" fill="white"><use xlink:href="#path-1"></use></mask><g id="Clip-2"></g><path d="M23.2984024,13.084693 C22.3909523,12.1545 21.3103537,11.5183596 20.1659302,11.1639386 C18.9450432,10.6939737 17.7961962,9.95786842 16.8148104,8.94848246 C15.8460632,7.95337719 15.1364069,6.79923684 14.6782583,5.56720175 C14.3401763,4.36762281 13.7120388,3.24009649 12.7875266,2.29237719 C9.86864634,-0.707868421 5.12791463,-0.707868421 2.20777051,2.29237719 C1.88675055,2.62213158 1.61438914,2.98304386 1.36098559,3.35564035 C-0.663083149,6.34939474 -0.3900898,10.4907982 2.20777051,13.1606404 C3.14239357,14.1193947 4.26280377,14.771114 5.44893459,15.1177456 C5.62650665,15.1878509 5.76742683,15.2605526 5.89570843,15.331307 C7.21264856,15.7785526 8.16938914,17.0359035 8.16938914,18.5392719 C8.16938914,20.0588684 7.18926718,21.3279035 5.85020953,21.7602193 C5.78322506,21.7965702 5.72382373,21.8387632 5.64736031,21.8705702 C4.38602993,22.1990263 3.19421175,22.8669737 2.20777051,23.8809035 C-0.383138581,26.5442544 -0.663083149,30.6674825 1.3439235,33.6586404 C1.59795898,34.0403246 1.87916741,34.4096754 2.20777051,34.7491667 C5.12791463,37.7507105 9.86738248,37.7507105 12.7875266,34.7491667 C13.6760188,33.8352018 14.2946774,32.7505175 14.6416064,31.5976754 C15.0965953,30.3189035 15.8201541,29.1225702 16.818602,28.0924123 C17.8195776,27.0635526 18.9937018,26.3196579 20.2461851,25.8529386 C21.360908,25.4959211 22.4124379,24.8623772 23.2984024,23.9575 C26.2185466,20.9540088 26.2185466,16.0875351 23.2984024,13.084693" id="Fill-1" fill="#CBD400" mask="url(#mask-2)"></path></g><g id="Group-6" transform="translate(70.050505, 0.000000)"><mask id="mask-4" fill="white"><use xlink:href="#path-3"></use></mask><g id="Clip-5"></g><path d="M22.5739832,13.084693 C21.65533,12.1545 20.5633098,11.5183596 19.4028384,11.1639386 C18.1668788,10.6939737 17.0051279,9.95786842 16.0103468,8.94848246 C15.0283603,7.95337719 14.3137811,6.79923684 13.848697,5.56720175 C13.5051616,4.36762281 12.8692694,3.24009649 11.9346229,2.29237719 C8.97970707,-0.707868421 4.17916835,-0.707868421 1.22553199,2.29237719 C0.897989899,2.62213158 0.622905724,2.98304386 0.369572391,3.35564035 C0.837855219,4.0430614 1.19930303,4.78565789 1.42512795,5.56720175 C1.88893266,6.79923684 2.60735017,7.95337719 3.58421886,8.94848246 C4.58027946,9.95786842 5.74139057,10.6939737 6.98054882,11.1639386 C8.13782155,11.5183596 9.2330404,12.1545 10.1491347,13.084693 C13.1091684,16.0875351 13.1091684,20.9540088 10.1491347,23.9575 C9.25479125,24.8623772 8.18772054,25.4959211 7.05795623,25.8529386 C5.79384848,26.3196579 4.60522896,27.0635526 3.59189562,28.0924123 C2.58112121,29.1225702 1.84671044,30.3189035 1.38674411,31.5976754 C1.16411785,32.3279386 0.791794613,33.0101667 0.349740741,33.6586404 C0.606912458,34.0403246 0.891592593,34.4096754 1.22553199,34.7491667 C4.1842862,37.7507105 8.97842761,37.7507105 11.9346229,34.7491667 C12.8328047,33.8352018 13.4603805,32.7505175 13.8115926,31.5976754 C14.2721987,30.3189035 15.0046902,29.1225702 16.0154646,28.0924123 C17.028798,27.0635526 18.2167778,26.3196579 19.4853636,25.8529386 C20.6112896,25.4959211 21.6783603,24.8623772 22.5739832,23.9575 C25.5301785,20.9540088 25.5301785,16.0875351 22.5739832,13.084693" id="Fill-4" fill="#86B81D" mask="url(#mask-4)"></path></g><path d="M80.2919662,12.9528308 C79.3703997,12.0012424 78.2679951,11.3504702 77.1044531,10.9878971 C75.8572493,10.5071225 74.6898459,9.75408607 73.6878354,8.7214832 C72.7051315,7.70348949 71.9824226,6.52280273 71.5158474,5.26242958 C71.2886735,4.46290941 70.9250666,3.70323244 70.4539866,3 C68.3901153,6.0626138 68.6681297,10.2992738 71.3150592,13.030525 C72.2649419,14.0113317 73.4066032,14.6780413 74.6145503,15.0326457 C74.7953884,15.1043635 74.9389005,15.1787374 75.0682545,15.2511193 C76.410704,15.708652 77.3856853,16.9949232 77.3856853,18.5328706 C77.3856853,20.0874194 76.3894668,21.3856436 75.0225623,21.8279031 C74.9549893,21.8650901 74.8944955,21.9082535 74.8153386,21.9407922 C73.5320958,22.2768031 72.3190003,22.960114 71.3150592,23.9973652 C68.6752088,26.7219759 68.3901153,30.9400424 70.4340365,34 C70.8787309,33.3366108 71.2532782,32.6386907 71.4772343,31.8916308 C71.9393046,30.5834458 72.6787459,29.3595956 73.6955581,28.305743 C74.7149444,27.2532185 75.9100205,26.4922134 77.1823228,26.0147591 C78.3188357,25.6495298 79.3922805,25.0014138 80.2919662,24.0757235 C83.2696813,21.0031489 83.2696813,16.0247413 80.2919662,12.9528308" id="Fill-7" fill="#7AAF1F"></path><path d="M2.32682632,5.10156066 C0.936880928,5.10156066 -0.00125377201,3.91719988 0,2.54621255 C-0.00125377201,1.18175062 1.01030017,0 2.41342337,0 C3.83662705,0 4.79233216,1.14520836 4.7979798,2.54621255 C4.7979798,3.91719988 3.87239539,5.10156066 2.37702751,5.10156066 L2.32682632,5.10156066 Z M0.689640077,36 L4.1052034,36 L4.1052034,10.1124182 L0.689640077,10.1124182 L0.689640077,36 Z" id="Fill-9" fill="#86B81D"></path><path d="M27.0306959,1 L27.0306959,15.3456146 L26.9310236,15.3456146 C25.8454899,13.3338768 23.1907563,11.202804 18.9917407,11.202804 C12.7922508,11.202804 7.63548666,16.3870231 7.67701679,24.5422237 C7.67701679,31.8209977 12.3271134,37 18.4850732,37 C22.860432,37 25.9100213,34.6798174 27.2664592,31.8066515 L27.3814658,31.8066515 L27.5725043,36.4183241 L30.7070707,36.4183241 C30.5786468,34.6374307 30.5070872,32.3700685 30.5070872,30.2944245 L30.5070872,1 L27.0306959,1 Z M27.0306959,26.0811868 C27.0306959,26.8271927 26.9572195,27.4740789 26.782154,28.0968373 C25.878714,31.7597 22.8054844,34.120313 19.3936246,34.120313 C13.916759,34.120313 11.1930214,29.5151614 11.1930214,24.2709488 C11.1930214,18.316596 14.4253433,14.0277144 19.4773238,14.0277144 C23.2808447,14.0277144 25.9739138,16.5526573 26.8013218,19.6279752 C26.9597752,20.2716009 27.0306959,21.1082491 27.0306959,21.7499185 L27.0306959,26.0811868 Z" id="Fill-11" fill="#86B81D"></path><path d="M35.5249837,32.4154399 C36.8783886,33.2934183 39.081224,34.2167754 41.3213206,34.2167754 C44.9059805,34.2167754 46.5410553,32.3075833 46.5410553,30.0083978 C46.5410553,27.5224364 45.0379738,26.2544645 41.6370941,24.9910963 C37.3678374,23.4416452 35.2559447,21.0681439 35.2622602,18.0764405 C35.2622602,14.2850205 38.2014792,11 43.2797474,11 C45.6619421,11 47.7169955,11.6859412 49.0527171,12.5823342 L48.0315059,15.2919006 C47.163129,14.6993474 45.4326906,13.768756 43.0119716,13.768756 C40.1516959,13.768756 38.61009,15.5483887 38.61009,17.6430414 C38.61009,20.0172004 40.2603219,21.0168463 43.5449971,22.2900794 C47.7144694,23.8592604 49.8914113,25.9289219 49.8989899,29.673648 C49.8989899,33.9320079 46.6648385,37 41.1817488,37 C38.6208263,37 36.2601042,36.2897253 34.5454545,35.2394395 L35.5249837,32.4154399 Z" id="Fill-13" fill="#86B81D"></path><g id="Group-17" transform="translate(89.242424, 0.000000)"><mask id="mask-6" fill="white"><use xlink:href="#path-5"></use></mask><g id="Clip-16"></g><path d="M2.35497643,2.57666667 L2.89618855,2.57666667 C3.34208081,2.57666667 3.56470707,2.43 3.56470707,2.136 C3.56470707,1.95533333 3.48090236,1.828 3.31073401,1.75933333 C3.23076768,1.72733333 3.08107071,1.70666667 2.85972391,1.70666667 L2.35497643,1.70666667 L2.35497643,2.57666667 Z M1.91036364,4.196 L1.91036364,1.32066667 L2.85844444,1.32066667 C3.12329293,1.32066667 3.31713131,1.332 3.43548148,1.36133333 C3.61204714,1.40333333 3.7553468,1.492 3.86538047,1.624 C3.98309091,1.75666667 4.03682828,1.91533333 4.03810774,2.09866667 C4.03810774,2.326 3.96070034,2.51933333 3.80076768,2.66866667 C3.65426936,2.81466667 3.47194613,2.89266667 3.2480404,2.91066667 C3.34336027,2.95266667 3.42460606,3.00466667 3.48346128,3.06333333 C3.60053199,3.18333333 3.73423569,3.37333333 3.89160943,3.63266667 L4.22938721,4.196 L3.6843367,4.196 L3.43931987,3.74333333 C3.2480404,3.392 3.09578451,3.168 2.97359596,3.07266667 C2.88979125,3.00733333 2.76952189,2.97333333 2.61598653,2.97333333 L2.35497643,2.97333333 L2.35497643,4.196 L1.91036364,4.196 Z M3.03564983,0.484 C2.65373064,0.484 2.29484175,0.586666667 1.9577037,0.785333333 C1.62376431,0.981333333 1.36403367,1.254 1.17787205,1.598 C0.989151515,1.95866667 0.891912458,2.332 0.891912458,2.718 C0.891912458,3.11933333 0.989151515,3.49133333 1.17787205,3.84 C1.3729899,4.18733333 1.63783838,4.45466667 1.96857912,4.64866667 C2.31019529,4.848 2.66588552,4.94933333 3.03564983,4.94933333 C3.41820875,4.94933333 3.77709764,4.84666667 4.11039731,4.64466667 C4.44753535,4.44333333 4.70790572,4.168 4.89662626,3.82133333 C5.08150842,3.47266667 5.17362963,3.104 5.17362963,2.718 C5.17362963,2.318 5.07511111,1.94 4.88127273,1.58733333 C4.68551515,1.23333333 4.41810774,0.963333333 4.08416835,0.771333333 C3.74575084,0.582 3.39581818,0.484 3.03564983,0.484 L3.03564983,0.484 Z M3.03564983,0.0433333333 C3.48921886,0.0433333333 3.91911785,0.161333333 4.31639057,0.399333333 C4.72389899,0.639333333 5.03480808,0.964666667 5.25487542,1.37666667 C5.48517845,1.80333333 5.59969024,2.248 5.59969024,2.718 C5.59969024,3.19733333 5.48517845,3.644 5.25487542,4.05933333 C5.02137374,4.48266667 4.70790572,4.808 4.310633,5.036 C3.90184512,5.27266667 3.47578451,5.39133333 3.03564983,5.39266667 C2.57376431,5.39266667 2.14258586,5.27266667 1.74147475,5.03333333 C1.33908418,4.792 1.03073401,4.464 0.805548822,4.04866667 C0.578444444,3.62333333 0.465851852,3.182 0.465851852,2.718 C0.465851852,2.236 0.58420202,1.786 0.817063973,1.36133333 C1.05312458,0.935333333 1.36915152,0.61 1.77921886,0.382666667 C2.18160943,0.155333333 2.60127273,0.0433333333 3.03564983,0.0433333333 L3.03564983,0.0433333333 Z" id="Fill-15" fill="#86B81D" mask="url(#mask-6)"></path></g></g></g></g></g></g></g></g></g></svg> 